<svg id="Layer_1" data-name="Layer 1" xmlns="http://www.w3.org/2000/svg" viewBox="0 0 182.08 182.08"><defs><style>.cls-1{fill:#fff;}.cls-2{fill:#1d1d1b;}</style></defs><rect class="cls-1" x="6" y="6" width="170.08" height="170.08" rx="28.35"/><path class="cls-2" d="M389.57,359.87H276.18a34.39,34.39,0,0,1-34.35-34.35V212.13a34.38,34.38,0,0,1,34.35-34.34H389.57a34.37,34.37,0,0,1,34.34,34.34V325.52A34.38,34.38,0,0,1,389.57,359.87ZM276.18,189.79a22.37,22.37,0,0,0-22.35,22.34V325.52a22.38,22.38,0,0,0,22.35,22.35H389.57a22.37,22.37,0,0,0,22.34-22.35V212.13a22.36,22.36,0,0,0-22.34-22.34Z" transform="translate(-241.83 -177.79)"/><path class="cls-2" d="M319.45,271h-33l-6.3,15.25H263.25L295,215.08h16.26L343,286.23H325.76Zm-5.18-12.5L303,231.24l-11.28,27.24Z" transform="translate(-241.83 -177.79)"/><path class="cls-2" d="M400.5,305.15v13.42H338.3V307.9l39-47.06H339.11V247.42H399V258.1l-38.92,47Z" transform="translate(-241.83 -177.79)"/></svg>